<svg width="960" height="60" xmlns="http://www.w3.org/2000/svg">
 <g>
  <title>background</title>
  <rect fill="none" id="canvas_background" height="62" width="962" y="-1" x="-1"/>
 </g>
 <g>
  <title>Layer 1</title>
  <g stroke="null" fill="currentColor" id="swish-bottom">
   <path stroke="null" id="svg_1" d="m958,47.174446c0,0 -3.763794,-0.836388 -10.664063,-2.300102c-3.554626,-0.83638 -7.736633,-1.463684 -12.755066,-2.509178c-5.018372,-0.83638 -10.873108,-1.881874 -17.355164,-2.927368c-12.964172,-2.300102 -28.855591,-4.181984 -47.047241,-6.272972c-18.19165,-2.090988 -38.892395,-3.763779 -61.26593,-5.018387c-22.373596,-1.254574 -46.838196,-2.090988 -72.557312,-2.718262c-12.964172,-0.20911 -26.13739,-0.20911 -39.728821,-0.20911c-13.59137,0 -27.391907,0.20911 -41.401489,0.41819c-28.019348,0.627304 -57.084045,1.463688 -86.567017,3.136486c-29.482849,1.463684 -59.384033,3.345589 -89.285156,5.64566c-15.055145,1.254608 -29.901123,2.509209 -44.747162,3.763786c-14.846008,1.254608 -29.692017,2.718292 -44.538055,4.181976c-7.318451,0.836411 -14.636932,1.463684 -21.955383,2.300102c-7.318451,0.83638 -14.427795,1.463684 -21.746277,2.300064c-7.318451,0.836418 -14.427795,1.672798 -21.53717,2.509216c-7.109344,0.83638 -14.218719,1.67276 -21.328094,2.300064c-28.228333,2.718292 -55.620285,4.80928 -81.548538,5.64566c-12.964111,0.418228 -25.719162,0.836418 -37.846878,0.836418c-12.336838,0.209076 -24.046371,0 -35.337708,-0.209114c-22.791779,-0.627304 -43.492569,-2.090988 -61.893257,-3.972862c-18.400703,-2.300102 -34.501308,-4.80928 -47.465439,-8.154877c-6.482067,-1.672768 -12.336834,-3.345558 -17.355202,-5.018356c-5.018375,-1.672798 -9.200352,-3.554672 -12.545934,-5.018364c-3.345582,-1.672798 -5.854766,-2.927399 -7.31846,-3.972893c-1.672789,-1.045494 -2.509184,-1.672798 -2.509184,-1.672798s0.836394,0.418221 2.718283,1.045494c1.672789,0.627304 4.391077,1.463715 7.736659,2.509209c3.345578,0.836388 7.736655,1.881882 12.755027,2.509186c5.018375,0.83638 10.873142,1.463684 17.355202,2.090988c6.482067,0.41819 13.800529,0.83638 21.537186,1.045494c7.945759,0.209076 16.309711,0.209076 25.510052,0.209076c18.191612,-0.209076 38.89238,-1.045494 61.265961,-2.300064c11.291351,-0.627304 22.791779,-1.463692 34.91951,-2.509186c12.127731,-1.045494 24.67366,-2.090988 37.428696,-3.136482c25.719162,-2.300095 52.692902,-5.22747 80.712158,-8.573063c14.009613,-1.672798 28.228333,-3.345592 42.656158,-5.22747c14.427795,-1.672798 29.273834,-3.345596 43.910767,-4.60017c14.846008,-1.463684 29.692017,-2.718288 44.747131,-3.972897c15.055145,-1.254574 30.11026,-2.300068 45.165344,-3.136467c30.110229,-1.881893 60.429535,-3.136482 90.121552,-3.763783c29.692078,-0.627289 58.965881,-0.627289 87.403381,0c14.218689,0.418205 28.019226,0.836395 41.819763,1.463699c13.591431,0.627289 26.973694,1.463684 39.937866,2.509178c25.928284,1.881893 50.392761,4.39109 72.975464,7.318462c22.582764,3.136482 43.074402,6.482075 61.266052,10.036751c18.191528,3.554672 33.873962,7.318455 46.838013,10.873135c6.482117,1.672798 12.127808,3.554672 17.146179,5.018356c5.018311,1.672798 9.200317,2.927406 12.545898,3.9729c6.272949,2.300064 9.827698,3.554672 9.827698,3.554672z"/>
  </g>
  <!-- <line id="svg_2" y2="182.3" x2="310.2" y1="182.3" x1="454.1" stroke-miterlimit="10" stroke-width="2"/> -->
  <!-- <line id="svg_3" y2="182.3" x2="25.9" y1="182.3" x1="169.8" stroke-miterlimit="10" stroke-width="2"/> -->
 </g>
</svg>